<mxfile host="Electron" modified="2024-01-04T18:17:47.522Z" agent="Mozilla/5.0 (Macintosh; Intel Mac OS X 10_15_7) AppleWebKit/537.36 (KHTML, like Gecko) draw.io/22.1.2 Chrome/114.0.5735.289 Electron/25.9.4 Safari/537.36" etag="GwNZDiBhLiQMKKRGwU6U" version="22.1.2" type="device">
  <diagram name="Page-1" id="aPRXKrDRDOp3xn6O6HWR">
    <mxGraphModel dx="1402" dy="1275" grid="1" gridSize="10" guides="1" tooltips="1" connect="1" arrows="1" fold="1" page="1" pageScale="1" pageWidth="600" pageHeight="900" math="0" shadow="0">
      <root>
        <mxCell id="0" />
        <mxCell id="1" parent="0" />
        <mxCell id="didD4X-IsoMtyqeyD2OK-7" style="rounded=0;orthogonalLoop=1;jettySize=auto;html=1;exitX=0;exitY=0.5;exitDx=0;exitDy=0;entryX=1;entryY=0.5;entryDx=0;entryDy=0;endArrow=none;endFill=0;" edge="1" parent="1" source="didD4X-IsoMtyqeyD2OK-1" target="didD4X-IsoMtyqeyD2OK-3">
          <mxGeometry relative="1" as="geometry" />
        </mxCell>
        <mxCell id="didD4X-IsoMtyqeyD2OK-1" value="Sim World&lt;br&gt;Containing&lt;br&gt;Sim Vehicles" style="rounded=0;whiteSpace=wrap;html=1;" vertex="1" parent="1">
          <mxGeometry x="240" y="50" width="130" height="80" as="geometry" />
        </mxCell>
        <mxCell id="didD4X-IsoMtyqeyD2OK-6" style="rounded=0;orthogonalLoop=1;jettySize=auto;html=1;exitX=0.008;exitY=0.65;exitDx=0;exitDy=0;entryX=1;entryY=0.5;entryDx=0;entryDy=0;dashed=1;exitPerimeter=0;" edge="1" parent="1" source="didD4X-IsoMtyqeyD2OK-2" target="didD4X-IsoMtyqeyD2OK-21">
          <mxGeometry relative="1" as="geometry" />
        </mxCell>
        <mxCell id="didD4X-IsoMtyqeyD2OK-2" value="Zone&lt;br&gt;Alerting" style="ellipse;whiteSpace=wrap;html=1;dashed=1;" vertex="1" parent="1">
          <mxGeometry x="470" y="100" width="120" height="80" as="geometry" />
        </mxCell>
        <mxCell id="didD4X-IsoMtyqeyD2OK-3" value="Zone&lt;br&gt;Alert&lt;br&gt;Service" style="rounded=0;whiteSpace=wrap;html=1;" vertex="1" parent="1">
          <mxGeometry x="50" y="110" width="80" height="60" as="geometry" />
        </mxCell>
        <mxCell id="didD4X-IsoMtyqeyD2OK-4" value="" style="rounded=0;whiteSpace=wrap;html=1;" vertex="1" parent="1">
          <mxGeometry x="30" y="110" width="20" height="60" as="geometry" />
        </mxCell>
        <mxCell id="didD4X-IsoMtyqeyD2OK-5" value="" style="rounded=0;whiteSpace=wrap;html=1;" vertex="1" parent="1">
          <mxGeometry x="10" y="110" width="20" height="60" as="geometry" />
        </mxCell>
        <mxCell id="didD4X-IsoMtyqeyD2OK-8" value="Requirements" style="text;html=1;strokeColor=none;fillColor=none;align=center;verticalAlign=middle;whiteSpace=wrap;rounded=0;" vertex="1" parent="1">
          <mxGeometry x="400" y="180" width="60" height="30" as="geometry" />
        </mxCell>
        <mxCell id="didD4X-IsoMtyqeyD2OK-9" value="Behavior&lt;br&gt;Specification" style="text;html=1;strokeColor=none;fillColor=none;align=center;verticalAlign=middle;whiteSpace=wrap;rounded=0;" vertex="1" parent="1">
          <mxGeometry x="150" y="125" width="60" height="30" as="geometry" />
        </mxCell>
        <mxCell id="didD4X-IsoMtyqeyD2OK-10" value="Behavior&lt;br&gt;Specification" style="text;html=1;strokeColor=none;fillColor=none;align=center;verticalAlign=middle;whiteSpace=wrap;rounded=0;" vertex="1" parent="1">
          <mxGeometry x="20" y="290" width="60" height="30" as="geometry" />
        </mxCell>
        <mxCell id="didD4X-IsoMtyqeyD2OK-11" value="Sim World&lt;br&gt;Containing Sim Vehicles" style="text;html=1;strokeColor=none;fillColor=none;align=center;verticalAlign=middle;whiteSpace=wrap;rounded=0;" vertex="1" parent="1">
          <mxGeometry x="320" y="290" width="60" height="30" as="geometry" />
        </mxCell>
        <mxCell id="didD4X-IsoMtyqeyD2OK-12" value="Implies" style="text;html=1;strokeColor=none;fillColor=none;align=center;verticalAlign=middle;whiteSpace=wrap;rounded=0;" vertex="1" parent="1">
          <mxGeometry x="390" y="290" width="60" height="30" as="geometry" />
        </mxCell>
        <mxCell id="didD4X-IsoMtyqeyD2OK-13" value="Requirements" style="text;html=1;strokeColor=none;fillColor=none;align=center;verticalAlign=middle;whiteSpace=wrap;rounded=0;" vertex="1" parent="1">
          <mxGeometry x="470" y="290" width="60" height="30" as="geometry" />
        </mxCell>
        <mxCell id="didD4X-IsoMtyqeyD2OK-14" value="In" style="text;html=1;strokeColor=none;fillColor=none;align=center;verticalAlign=middle;whiteSpace=wrap;rounded=0;" vertex="1" parent="1">
          <mxGeometry x="270" y="290" width="60" height="30" as="geometry" />
        </mxCell>
        <mxCell id="didD4X-IsoMtyqeyD2OK-15" value="of" style="text;html=1;strokeColor=none;fillColor=none;align=center;verticalAlign=middle;whiteSpace=wrap;rounded=0;" vertex="1" parent="1">
          <mxGeometry x="530" y="290" width="60" height="30" as="geometry" />
        </mxCell>
        <mxCell id="didD4X-IsoMtyqeyD2OK-16" value="Zone&lt;br&gt;Alerting" style="text;html=1;strokeColor=none;fillColor=none;align=center;verticalAlign=middle;whiteSpace=wrap;rounded=0;" vertex="1" parent="1">
          <mxGeometry x="600" y="290" width="60" height="30" as="geometry" />
        </mxCell>
        <mxCell id="didD4X-IsoMtyqeyD2OK-17" value="Of" style="text;html=1;strokeColor=none;fillColor=none;align=center;verticalAlign=middle;whiteSpace=wrap;rounded=0;" vertex="1" parent="1">
          <mxGeometry x="80" y="290" width="60" height="30" as="geometry" />
        </mxCell>
        <mxCell id="didD4X-IsoMtyqeyD2OK-18" value="Zone&lt;br&gt;Alert&lt;br&gt;Service" style="text;html=1;strokeColor=none;fillColor=none;align=center;verticalAlign=middle;whiteSpace=wrap;rounded=0;" vertex="1" parent="1">
          <mxGeometry x="130" y="290" width="60" height="30" as="geometry" />
        </mxCell>
        <mxCell id="didD4X-IsoMtyqeyD2OK-21" value="Zone&lt;br&gt;Alerts" style="rounded=0;whiteSpace=wrap;html=1;" vertex="1" parent="1">
          <mxGeometry x="240" y="160" width="130" height="80" as="geometry" />
        </mxCell>
        <mxCell id="didD4X-IsoMtyqeyD2OK-22" style="rounded=0;orthogonalLoop=1;jettySize=auto;html=1;exitX=0.033;exitY=0.325;exitDx=0;exitDy=0;dashed=1;endArrow=none;endFill=0;entryX=1;entryY=0.5;entryDx=0;entryDy=0;exitPerimeter=0;" edge="1" parent="1" source="didD4X-IsoMtyqeyD2OK-2" target="didD4X-IsoMtyqeyD2OK-1">
          <mxGeometry relative="1" as="geometry">
            <mxPoint x="481" y="112" as="sourcePoint" />
            <mxPoint x="380" y="210" as="targetPoint" />
          </mxGeometry>
        </mxCell>
        <mxCell id="didD4X-IsoMtyqeyD2OK-23" style="rounded=0;orthogonalLoop=1;jettySize=auto;html=1;exitX=0;exitY=0.5;exitDx=0;exitDy=0;entryX=1;entryY=0.5;entryDx=0;entryDy=0;endArrow=none;endFill=0;" edge="1" parent="1" source="didD4X-IsoMtyqeyD2OK-21" target="didD4X-IsoMtyqeyD2OK-3">
          <mxGeometry relative="1" as="geometry">
            <mxPoint x="250" y="100" as="sourcePoint" />
            <mxPoint x="140" y="100" as="targetPoint" />
          </mxGeometry>
        </mxCell>
        <mxCell id="didD4X-IsoMtyqeyD2OK-24" value="For" style="text;html=1;strokeColor=none;fillColor=none;align=center;verticalAlign=middle;whiteSpace=wrap;rounded=0;" vertex="1" parent="1">
          <mxGeometry x="180" y="290" width="60" height="30" as="geometry" />
        </mxCell>
        <mxCell id="didD4X-IsoMtyqeyD2OK-25" value="Zone&lt;br&gt;Alerts" style="text;html=1;strokeColor=none;fillColor=none;align=center;verticalAlign=middle;whiteSpace=wrap;rounded=0;" vertex="1" parent="1">
          <mxGeometry x="230" y="290" width="60" height="30" as="geometry" />
        </mxCell>
        <mxCell id="didD4X-IsoMtyqeyD2OK-26" value="&lt;b&gt;Problems:&lt;/b&gt;&lt;br&gt;1. Accuracy Problem: False positive or false negative alerts would be very bad&lt;br&gt;2. Utility Problem: Predicting zone alerts to frequently, too early, would be bad. But what is too frequent or too early is a matter of consumer taste.&lt;br&gt;3. Information Dynamics: Zones change, vehicles change velocity&lt;br&gt;4, Information limitations: We don&#39;t have complete access to all vehicle actuation and dynamics from which to know what is going to happen. We get only periodic velocity and position reports from vehicles.&lt;br&gt;" style="text;html=1;strokeColor=none;fillColor=none;align=left;verticalAlign=top;whiteSpace=wrap;rounded=0;" vertex="1" parent="1">
          <mxGeometry x="770" y="90" width="620" height="140" as="geometry" />
        </mxCell>
        <mxCell id="didD4X-IsoMtyqeyD2OK-27" style="rounded=0;orthogonalLoop=1;jettySize=auto;html=1;exitX=0;exitY=0.5;exitDx=0;exitDy=0;entryX=1;entryY=0.5;entryDx=0;entryDy=0;endArrow=none;endFill=0;" edge="1" parent="1" source="didD4X-IsoMtyqeyD2OK-28" target="didD4X-IsoMtyqeyD2OK-31">
          <mxGeometry relative="1" as="geometry" />
        </mxCell>
        <mxCell id="didD4X-IsoMtyqeyD2OK-28" value="Dynamic&lt;br&gt;Model" style="rounded=0;whiteSpace=wrap;html=1;" vertex="1" parent="1">
          <mxGeometry x="250" y="430" width="130" height="80" as="geometry" />
        </mxCell>
        <mxCell id="didD4X-IsoMtyqeyD2OK-29" style="rounded=0;orthogonalLoop=1;jettySize=auto;html=1;exitX=0.008;exitY=0.65;exitDx=0;exitDy=0;entryX=1;entryY=0.5;entryDx=0;entryDy=0;dashed=1;exitPerimeter=0;" edge="1" parent="1" source="didD4X-IsoMtyqeyD2OK-30" target="didD4X-IsoMtyqeyD2OK-36">
          <mxGeometry relative="1" as="geometry" />
        </mxCell>
        <mxCell id="didD4X-IsoMtyqeyD2OK-30" value="Zone&lt;br&gt;Alerting" style="ellipse;whiteSpace=wrap;html=1;dashed=1;" vertex="1" parent="1">
          <mxGeometry x="480" y="480" width="120" height="80" as="geometry" />
        </mxCell>
        <mxCell id="didD4X-IsoMtyqeyD2OK-31" value="Prediction&lt;br&gt;Alerter" style="rounded=0;whiteSpace=wrap;html=1;" vertex="1" parent="1">
          <mxGeometry x="60" y="490" width="80" height="60" as="geometry" />
        </mxCell>
        <mxCell id="didD4X-IsoMtyqeyD2OK-32" value="" style="rounded=0;whiteSpace=wrap;html=1;" vertex="1" parent="1">
          <mxGeometry x="40" y="490" width="20" height="60" as="geometry" />
        </mxCell>
        <mxCell id="didD4X-IsoMtyqeyD2OK-33" value="" style="rounded=0;whiteSpace=wrap;html=1;" vertex="1" parent="1">
          <mxGeometry x="20" y="490" width="20" height="60" as="geometry" />
        </mxCell>
        <mxCell id="didD4X-IsoMtyqeyD2OK-34" value="Requirements" style="text;html=1;strokeColor=none;fillColor=none;align=center;verticalAlign=middle;whiteSpace=wrap;rounded=0;" vertex="1" parent="1">
          <mxGeometry x="410" y="560" width="60" height="30" as="geometry" />
        </mxCell>
        <mxCell id="didD4X-IsoMtyqeyD2OK-35" value="Behavior&lt;br&gt;Specification" style="text;html=1;strokeColor=none;fillColor=none;align=center;verticalAlign=middle;whiteSpace=wrap;rounded=0;" vertex="1" parent="1">
          <mxGeometry x="160" y="505" width="60" height="30" as="geometry" />
        </mxCell>
        <mxCell id="didD4X-IsoMtyqeyD2OK-36" value="Predictive&lt;br&gt;Alerter" style="rounded=0;whiteSpace=wrap;html=1;" vertex="1" parent="1">
          <mxGeometry x="250" y="540" width="130" height="80" as="geometry" />
        </mxCell>
        <mxCell id="didD4X-IsoMtyqeyD2OK-37" style="rounded=0;orthogonalLoop=1;jettySize=auto;html=1;exitX=0.033;exitY=0.325;exitDx=0;exitDy=0;dashed=1;endArrow=none;endFill=0;entryX=1;entryY=0.5;entryDx=0;entryDy=0;exitPerimeter=0;" edge="1" parent="1" source="didD4X-IsoMtyqeyD2OK-30" target="didD4X-IsoMtyqeyD2OK-28">
          <mxGeometry relative="1" as="geometry">
            <mxPoint x="491" y="492" as="sourcePoint" />
            <mxPoint x="390" y="590" as="targetPoint" />
          </mxGeometry>
        </mxCell>
        <mxCell id="didD4X-IsoMtyqeyD2OK-38" style="rounded=0;orthogonalLoop=1;jettySize=auto;html=1;exitX=0;exitY=0.5;exitDx=0;exitDy=0;entryX=1;entryY=0.5;entryDx=0;entryDy=0;endArrow=none;endFill=0;" edge="1" parent="1" source="didD4X-IsoMtyqeyD2OK-36" target="didD4X-IsoMtyqeyD2OK-31">
          <mxGeometry relative="1" as="geometry">
            <mxPoint x="260" y="480" as="sourcePoint" />
            <mxPoint x="150" y="480" as="targetPoint" />
          </mxGeometry>
        </mxCell>
        <mxCell id="didD4X-IsoMtyqeyD2OK-41" style="rounded=0;orthogonalLoop=1;jettySize=auto;html=1;exitX=0;exitY=0.5;exitDx=0;exitDy=0;entryX=1;entryY=0.5;entryDx=0;entryDy=0;endArrow=none;endFill=0;" edge="1" parent="1" source="didD4X-IsoMtyqeyD2OK-42" target="didD4X-IsoMtyqeyD2OK-45">
          <mxGeometry relative="1" as="geometry" />
        </mxCell>
        <mxCell id="didD4X-IsoMtyqeyD2OK-42" value="Dynamic&lt;br&gt;Model" style="rounded=0;whiteSpace=wrap;html=1;" vertex="1" parent="1">
          <mxGeometry x="245" y="710" width="130" height="80" as="geometry" />
        </mxCell>
        <mxCell id="didD4X-IsoMtyqeyD2OK-43" style="rounded=0;orthogonalLoop=1;jettySize=auto;html=1;exitX=0.008;exitY=0.65;exitDx=0;exitDy=0;entryX=1;entryY=0.5;entryDx=0;entryDy=0;dashed=1;exitPerimeter=0;" edge="1" parent="1" source="didD4X-IsoMtyqeyD2OK-44" target="didD4X-IsoMtyqeyD2OK-50">
          <mxGeometry relative="1" as="geometry" />
        </mxCell>
        <mxCell id="didD4X-IsoMtyqeyD2OK-44" value="Zone&lt;br&gt;Alerting" style="ellipse;whiteSpace=wrap;html=1;dashed=1;" vertex="1" parent="1">
          <mxGeometry x="475" y="760" width="120" height="80" as="geometry" />
        </mxCell>
        <mxCell id="didD4X-IsoMtyqeyD2OK-45" value="Prediction&lt;br&gt;Alert&lt;br&gt;Service" style="rounded=0;whiteSpace=wrap;html=1;" vertex="1" parent="1">
          <mxGeometry x="55" y="770" width="80" height="60" as="geometry" />
        </mxCell>
        <mxCell id="didD4X-IsoMtyqeyD2OK-46" value="" style="rounded=0;whiteSpace=wrap;html=1;" vertex="1" parent="1">
          <mxGeometry x="35" y="770" width="20" height="60" as="geometry" />
        </mxCell>
        <mxCell id="didD4X-IsoMtyqeyD2OK-47" value="" style="rounded=0;whiteSpace=wrap;html=1;" vertex="1" parent="1">
          <mxGeometry x="15" y="770" width="20" height="60" as="geometry" />
        </mxCell>
        <mxCell id="didD4X-IsoMtyqeyD2OK-48" value="Requirements" style="text;html=1;strokeColor=none;fillColor=none;align=center;verticalAlign=middle;whiteSpace=wrap;rounded=0;" vertex="1" parent="1">
          <mxGeometry x="405" y="840" width="60" height="30" as="geometry" />
        </mxCell>
        <mxCell id="didD4X-IsoMtyqeyD2OK-49" value="Behavior&lt;br&gt;Specification" style="text;html=1;strokeColor=none;fillColor=none;align=center;verticalAlign=middle;whiteSpace=wrap;rounded=0;" vertex="1" parent="1">
          <mxGeometry x="155" y="785" width="60" height="30" as="geometry" />
        </mxCell>
        <mxCell id="didD4X-IsoMtyqeyD2OK-50" value="Predictive&lt;br&gt;Alerter" style="rounded=0;whiteSpace=wrap;html=1;" vertex="1" parent="1">
          <mxGeometry x="245" y="820" width="130" height="80" as="geometry" />
        </mxCell>
        <mxCell id="didD4X-IsoMtyqeyD2OK-51" style="rounded=0;orthogonalLoop=1;jettySize=auto;html=1;exitX=0.033;exitY=0.325;exitDx=0;exitDy=0;dashed=1;endArrow=none;endFill=0;entryX=1;entryY=0.5;entryDx=0;entryDy=0;exitPerimeter=0;" edge="1" parent="1" source="didD4X-IsoMtyqeyD2OK-44" target="didD4X-IsoMtyqeyD2OK-42">
          <mxGeometry relative="1" as="geometry">
            <mxPoint x="486" y="772" as="sourcePoint" />
            <mxPoint x="385" y="870" as="targetPoint" />
          </mxGeometry>
        </mxCell>
        <mxCell id="didD4X-IsoMtyqeyD2OK-52" style="rounded=0;orthogonalLoop=1;jettySize=auto;html=1;exitX=0;exitY=0.5;exitDx=0;exitDy=0;entryX=1;entryY=0.5;entryDx=0;entryDy=0;endArrow=none;endFill=0;" edge="1" parent="1" source="didD4X-IsoMtyqeyD2OK-50" target="didD4X-IsoMtyqeyD2OK-45">
          <mxGeometry relative="1" as="geometry">
            <mxPoint x="255" y="760" as="sourcePoint" />
            <mxPoint x="145" y="760" as="targetPoint" />
          </mxGeometry>
        </mxCell>
        <mxCell id="didD4X-IsoMtyqeyD2OK-53" value="Predictive&lt;br&gt;Model" style="rounded=0;whiteSpace=wrap;html=1;" vertex="1" parent="1">
          <mxGeometry x="240" y="1030" width="130" height="80" as="geometry" />
        </mxCell>
        <mxCell id="didD4X-IsoMtyqeyD2OK-54" value="Predictive&lt;br&gt;model" style="rounded=0;whiteSpace=wrap;html=1;" vertex="1" parent="1">
          <mxGeometry x="235" y="1150" width="130" height="80" as="geometry" />
        </mxCell>
      </root>
    </mxGraphModel>
  </diagram>
</mxfile>
